<svg width="32" height="32" viewBox="0 0 32 32" fill="none" xmlns="http://www.w3.org/2000/svg">
<path d="M18.8545 15.9319L9.6561 31.8639L7.02577 27.3132L16.2226 11.3813L18.8545 15.9319ZM8.35022 20.4764L5.71989 15.9319H0.459229L5.71989 25.0317L8.35022 20.4764ZM20.1759 18.2011L17.5455 22.7502L22.8062 31.8515L31.9922 15.9319H26.7316L22.7892 22.7564L20.1759 18.2011Z" fill="white"/>
<path d="M13.5985 15.9319L22.7954 0L25.4257 4.55066L16.2273 20.4826L13.5985 15.9319ZM24.109 11.3813L26.7393 15.9319H32L26.7393 6.83217L24.109 11.3813ZM12.2849 13.6504L14.9152 9.09977L9.6561 0L0.459229 15.9319H5.71989L9.6561 9.09977L12.2849 13.6504Z" fill="white"/>
</svg>
