<svg xmlns="http://www.w3.org/2000/svg" xmlns:xlink="http://www.w3.org/1999/xlink" viewBox="0 0 1000 206.88"><defs><style>.cls-1{fill:#202939;}.cls-2{fill:url(#linear-gradient);}.cls-3{fill:url(#linear-gradient-2);}</style><linearGradient id="linear-gradient" y1="2010.56" x2="203.8" y2="2010.56" gradientTransform="matrix(1, 0, 0, -1, 0, 2150.29)" gradientUnits="userSpaceOnUse"><stop offset="0" stop-color="#2970ff"/><stop offset="0.8" stop-color="#5fe9d0"/></linearGradient><linearGradient id="linear-gradient-2" x1="6846.2" y1="66.19" x2="7050" y2="66.19" gradientTransform="matrix(-1, 0, 0, 1, 7050, 0)" xlink:href="#linear-gradient"/></defs><g id="Layer_2" data-name="Layer 2"><g id="Layer_1-2" data-name="Layer 1"><g id="mp-logo-primary"><path class="cls-1" d="M263.56,169.77a4.75,4.75,0,0,1-3.51-1.37,4.53,4.53,0,0,1-1.37-3.32V37.91A4.69,4.69,0,0,1,263.56,33H279a5.33,5.33,0,0,1,4.1,1.47,11.47,11.47,0,0,1,1.76,2.25l37.7,70.32,38.09-70.32a11.47,11.47,0,0,1,1.76-2.25,5.33,5.33,0,0,1,4.1-1.47h15.24a4.69,4.69,0,0,1,4.88,4.89V165.08a4.53,4.53,0,0,1-1.37,3.32,4.75,4.75,0,0,1-3.51,1.37H365.34a4.46,4.46,0,0,1-3.42-1.37,4.69,4.69,0,0,1-1.27-3.32V80.49L333.3,132.65a10.42,10.42,0,0,1-2.54,3,6.28,6.28,0,0,1-4.1,1.27h-8a6.22,6.22,0,0,1-4.2-1.27,11.11,11.11,0,0,1-2.44-3L284.66,80.49v84.59a4.66,4.66,0,0,1-4.69,4.69Z"/><path class="cls-1" d="M418.67,51.39A4.68,4.68,0,0,1,414,46.7V32.63A4.66,4.66,0,0,1,418.67,28h17.77A4.76,4.76,0,0,1,440,29.31a4.55,4.55,0,0,1,1.37,3.32V46.7A4.53,4.53,0,0,1,440,50a4.76,4.76,0,0,1-3.52,1.37Zm.78,118.38a4.68,4.68,0,0,1-4.69-4.69V72.88a4.66,4.66,0,0,1,4.69-4.69h16.21a4.49,4.49,0,0,1,3.42,1.36,4.71,4.71,0,0,1,1.27,3.33v92.2a4.69,4.69,0,0,1-1.27,3.32,4.46,4.46,0,0,1-3.42,1.37Z"/><path class="cls-1" d="M474.92,169.77a4.66,4.66,0,0,1-4.68-4.69V72.88a4.64,4.64,0,0,1,4.68-4.69h16a4.66,4.66,0,0,1,4.69,4.69v8a41.42,41.42,0,0,1,13-10.45q7.9-4.22,19.63-4.21,11.91,0,20.71,5.37a35.79,35.79,0,0,1,13.57,15.14q4.79,9.78,4.79,23.45v54.89a4.68,4.68,0,0,1-4.69,4.69H545.44a4.68,4.68,0,0,1-4.69-4.69V111.36q0-11.33-5.56-17.78t-16.12-6.44q-10.16,0-16.21,6.44t-6.06,17.78v53.72a4.68,4.68,0,0,1-4.69,4.69Z"/><path class="cls-1" d="M636.86,169.77q-11.72,0-19.73-4.11a26,26,0,0,1-11.91-12.21q-3.91-8.1-3.91-20.21V88.89H585.88a4.53,4.53,0,0,1-3.33-1.36A4.77,4.77,0,0,1,581.19,84V72.88a4.64,4.64,0,0,1,4.69-4.69h15.43V35.76a4.69,4.69,0,0,1,1.27-3.32A4.43,4.43,0,0,1,606,31.07h15.82a4.68,4.68,0,0,1,4.69,4.69V68.19h24.42a4.64,4.64,0,0,1,4.68,4.69V84a4.77,4.77,0,0,1-1.36,3.52,4.54,4.54,0,0,1-3.32,1.36H626.51v42.39q0,8,2.83,12.5t9.86,4.5h13.48a4.68,4.68,0,0,1,4.69,4.69v12.11a4.68,4.68,0,0,1-4.69,4.69Z"/><path class="cls-1" d="M679.64,206.88a4.68,4.68,0,0,1-4.69-4.69V72.88a4.66,4.66,0,0,1,4.69-4.69h15.43a4.49,4.49,0,0,1,3.42,1.36,4.76,4.76,0,0,1,1.27,3.33v7.81a37,37,0,0,1,12.3-10.35q7.62-4.11,19-4.11a44.79,44.79,0,0,1,18,3.32A33.65,33.65,0,0,1,761.68,79a43.8,43.8,0,0,1,7.81,14.55,68,68,0,0,1,3.13,18.56q.2,3.31.2,6.84c0,2.34-.07,4.69-.2,7a61.55,61.55,0,0,1-2.93,18.07,43.12,43.12,0,0,1-7.91,14.45A36.26,36.26,0,0,1,749,168.2a42.46,42.46,0,0,1-18,3.52q-10.54,0-18-3.81a34.63,34.63,0,0,1-12.11-10.06v44.34a4.69,4.69,0,0,1-1.27,3.32,4.46,4.46,0,0,1-3.42,1.37Zm44.15-56.06c5.59,0,10-1.21,13.08-3.62a20.6,20.6,0,0,0,6.84-9.47,44.57,44.57,0,0,0,2.54-12.89q.19-5.86,0-11.72a44.57,44.57,0,0,0-2.54-12.9,20.7,20.7,0,0,0-6.84-9.47c-3.12-2.41-7.49-3.61-13.08-3.61-5.35,0-9.67,1.23-13,3.71a21.13,21.13,0,0,0-7.23,9.47,39.3,39.3,0,0,0-2.64,11.82c-.13,2.34-.2,4.82-.2,7.42s.07,5.15.2,7.62a28.08,28.08,0,0,0,2.74,11.23,22.65,22.65,0,0,0,7.42,8.89Q716,150.82,723.79,150.82Z"/><path class="cls-1" d="M824.19,171.72a41.3,41.3,0,0,1-18.36-4,33.59,33.59,0,0,1-13-10.74,25.53,25.53,0,0,1-4.79-15.14q0-13.67,11.14-21.78t29.11-10.84l26.76-3.91v-4.1q0-8.2-4.1-12.7T836.89,84q-7,0-11.43,2.83a17.5,17.5,0,0,0-6.54,7.52,5,5,0,0,1-4.49,2.54H799a4.15,4.15,0,0,1-3.22-1.17,4.42,4.42,0,0,1-1.07-3.13A19.08,19.08,0,0,1,797.34,85a30.91,30.91,0,0,1,7.42-8.7,43.18,43.18,0,0,1,13-7.13,56.55,56.55,0,0,1,19.34-2.93q12.3,0,20.8,3a36,36,0,0,1,13.58,8.11,30.82,30.82,0,0,1,7.42,11.91,44.41,44.41,0,0,1,2.34,14.46v61.34a4.66,4.66,0,0,1-4.68,4.69H860.72a4.46,4.46,0,0,1-3.42-1.37,4.73,4.73,0,0,1-1.27-3.32v-7.62a34.18,34.18,0,0,1-6.83,6.84,35.32,35.32,0,0,1-10.45,5.37A46.17,46.17,0,0,1,824.19,171.72Zm6.64-18.56a26.16,26.16,0,0,0,12.41-2.93,20.82,20.82,0,0,0,8.79-9.08q3.22-6.15,3.22-15.53v-4.11l-19.53,3.13q-11.54,1.76-17.19,5.67t-5.67,9.57a10.74,10.74,0,0,0,2.64,7.32,15.85,15.85,0,0,0,6.74,4.5A25.54,25.54,0,0,0,830.83,153.16Z"/><path class="cls-1" d="M943.94,171.72a43.77,43.77,0,0,1-17.88-3.42,33.73,33.73,0,0,1-12.79-9.67,45,45,0,0,1-7.82-14.75,69.47,69.47,0,0,1-3.12-18.65c-.13-2.35-.2-4.46-.2-6.35s.07-4,.2-6.35a69.68,69.68,0,0,1,3-18.17,43.8,43.8,0,0,1,7.81-14.75,35.2,35.2,0,0,1,12.89-9.86,42.8,42.8,0,0,1,17.88-3.52q10.54,0,17.87,3.62A38.34,38.34,0,0,1,974,79.12V35.76a4.69,4.69,0,0,1,1.27-3.32,4.43,4.43,0,0,1,3.42-1.37h16.6a4.68,4.68,0,0,1,4.69,4.69V165.08a4.68,4.68,0,0,1-4.69,4.69H979.88a4.46,4.46,0,0,1-3.42-1.37,4.69,4.69,0,0,1-1.27-3.32v-7.23a38.4,38.4,0,0,1-12.4,10Q955.26,171.72,943.94,171.72Zm7.22-20.9q8.21,0,13.09-3.72a22,22,0,0,0,7.23-9.47A34.1,34.1,0,0,0,974,125.81q.19-3.51.2-7.52t-.2-7.52a28.29,28.29,0,0,0-2.74-11.23,22.72,22.72,0,0,0-7.42-8.89q-4.87-3.51-12.7-3.51c-5.46,0-9.8,1.2-13,3.61a20.38,20.38,0,0,0-6.93,9.47,44.24,44.24,0,0,0-2.54,12.9q-.19,5.85,0,11.72a44.24,44.24,0,0,0,2.54,12.89,20.28,20.28,0,0,0,6.93,9.47C941.36,149.61,945.7,150.82,951.16,150.82Z"/><path class="cls-2" d="M118.89,103l-59.45,103-17-29.42,59.44-103ZM51,132.38,34,103H0l34,58.83Zm76.43-14.71-17,29.41,34,58.84L203.8,103h-34l-25.48,44.12Z"/><path class="cls-3" d="M84.92,103,144.36,0l17,29.42-59.45,103Zm67.93-29.42,17,29.42h34l-34-58.83ZM76.43,88.25l17-29.42L59.44,0,0,103H34L59.44,58.83Z"/></g></g></g></svg>